<svg width="16" height="16" viewBox="0 0 16 16" fill="none" xmlns="http://www.w3.org/2000/svg">
<g clip-path="url(#clip0_401_25)">
<mask id="mask0_401_25" style="mask-type:luminance" maskUnits="userSpaceOnUse" x="0" y="0" width="16" height="16">
<path d="M16 0H0V16H16V0Z" fill="white"/>
</mask>
<g mask="url(#mask0_401_25)">
<path d="M16 0H0V16H16V0Z" fill="white"/>
<path d="M16 0H0V16H16V0Z" fill="white"/>
<path d="M12.25 3.25H5.75C5.33579 3.25 5 3.58579 5 4C5 4.41421 5.33579 4.75 5.75 4.75H12.25C12.6642 4.75 13 4.41421 13 4C13 3.58579 12.6642 3.25 12.25 3.25Z" fill="url(#paint0_linear_401_25)"/>
<path d="M11.5 7.25H4.75C4.33579 7.25 4 7.58579 4 8C4 8.41421 4.33579 8.75 4.75 8.75H11.5C11.9142 8.75 12.25 8.41421 12.25 8C12.25 7.58579 11.9142 7.25 11.5 7.25Z" fill="url(#paint1_linear_401_25)"/>
<path d="M10.25 11.25H3.75C3.33579 11.25 3 11.5858 3 12C3 12.4142 3.33579 12.75 3.75 12.75H10.25C10.6642 12.75 11 12.4142 11 12C11 11.5858 10.6642 11.25 10.25 11.25Z" fill="url(#paint2_linear_401_25)"/>
</g>
</g>
<defs>
<linearGradient id="paint0_linear_401_25" x1="13" y1="4" x2="5" y2="4" gradientUnits="userSpaceOnUse">
<stop stop-color="#0C2472"/>
<stop offset="1" stop-color="#304CA8"/>
</linearGradient>
<linearGradient id="paint1_linear_401_25" x1="4" y1="8.375" x2="12.25" y2="8.375" gradientUnits="userSpaceOnUse">
<stop stop-color="#E71033"/>
<stop offset="1" stop-color="#C60439"/>
</linearGradient>
<linearGradient id="paint2_linear_401_25" x1="11" y1="12" x2="3" y2="12" gradientUnits="userSpaceOnUse">
<stop stop-color="#0C2472"/>
<stop offset="1" stop-color="#304CA8"/>
</linearGradient>
<clipPath id="clip0_401_25">
<rect width="16" height="16" fill="white"/>
</clipPath>
</defs>
</svg>
