<svg width="32" height="32" viewBox="0 0 32 32" fill="none" xmlns="http://www.w3.org/2000/svg">
<mask id="mask0_401_34" style="mask-type:luminance" maskUnits="userSpaceOnUse" x="0" y="0" width="32" height="32">
<path d="M32 0H0V32H32V0Z" fill="white"/>
</mask>
<g mask="url(#mask0_401_34)">
<path d="M32 0H0V32H32V0Z" fill="white"/>
<path d="M32 0H0V32H32V0Z" fill="white"/>
<path d="M24.5 6.5H11.5C10.6716 6.5 10 7.17157 10 8C10 8.82843 10.6716 9.5 11.5 9.5H24.5C25.3284 9.5 26 8.82843 26 8C26 7.17157 25.3284 6.5 24.5 6.5Z" fill="url(#paint0_linear_401_34)"/>
<path d="M23 14.5H9.5C8.67157 14.5 8 15.1716 8 16C8 16.8284 8.67157 17.5 9.5 17.5H23C23.8284 17.5 24.5 16.8284 24.5 16C24.5 15.1716 23.8284 14.5 23 14.5Z" fill="url(#paint1_linear_401_34)"/>
<path d="M20.5 22.5H7.5C6.67157 22.5 6 23.1716 6 24C6 24.8284 6.67157 25.5 7.5 25.5H20.5C21.3284 25.5 22 24.8284 22 24C22 23.1716 21.3284 22.5 20.5 22.5Z" fill="url(#paint2_linear_401_34)"/>
</g>
<defs>
<linearGradient id="paint0_linear_401_34" x1="26" y1="8" x2="10" y2="8" gradientUnits="userSpaceOnUse">
<stop stop-color="#0C2472"/>
<stop offset="1" stop-color="#304CA8"/>
</linearGradient>
<linearGradient id="paint1_linear_401_34" x1="8" y1="16.75" x2="24.5" y2="16.75" gradientUnits="userSpaceOnUse">
<stop stop-color="#E71033"/>
<stop offset="1" stop-color="#C60439"/>
</linearGradient>
<linearGradient id="paint2_linear_401_34" x1="22" y1="24" x2="6" y2="24" gradientUnits="userSpaceOnUse">
<stop stop-color="#0C2472"/>
<stop offset="1" stop-color="#304CA8"/>
</linearGradient>
</defs>
</svg>
