<svg width="32" height="32" viewBox="0 0 32 32" fill="none" xmlns="http://www.w3.org/2000/svg">
<path d="M12.8525 2.03426C14.14 -0.678083 17.86 -0.678088 19.1475 2.03425L21.3726 6.72188C21.8839 7.79896 22.8722 8.5455 24.0154 8.71821L28.9909 9.46991C31.8699 9.90485 33.0194 13.5833 30.9362 15.6945L27.3359 19.3433C26.5086 20.1817 26.1311 21.3897 26.3264 22.5735L27.1763 27.7257C27.6681 30.7068 24.6586 32.9802 22.0836 31.5727L17.6333 29.1402C16.6108 28.5812 15.3892 28.5812 14.3667 29.1402L9.91642 31.5727C7.34143 32.9802 4.33188 30.7068 4.82366 27.7257L5.67358 22.5735C5.86887 21.3897 5.49138 20.1817 4.66413 19.3433L1.0638 15.6945C-1.01941 13.5833 0.130125 9.90485 3.00906 9.46991L7.9846 8.71821C9.12782 8.5455 10.1161 7.79896 10.6274 6.72188L12.8525 2.03426Z" fill="white"/>
</svg>
