<svg width="17" height="17" viewBox="0 0 17 17" fill="none" xmlns="http://www.w3.org/2000/svg">
<path d="M8.5 9C9.60457 9 10.5 8.10457 10.5 7C10.5 5.89543 9.60457 5 8.5 5C7.39543 5 6.5 5.89543 6.5 7C6.5 8.10457 7.39543 9 8.5 9Z" stroke="white" stroke-width="1.5" stroke-linecap="round" stroke-linejoin="round"/>
<path d="M13.5 7C13.5 11.5 8.5 15 8.5 15C8.5 15 3.5 11.5 3.5 7C3.5 5.67392 4.02678 4.40215 4.96447 3.46447C5.90215 2.52678 7.17392 2 8.5 2C9.82608 2 11.0979 2.52678 12.0355 3.46447C12.9732 4.40215 13.5 5.67392 13.5 7V7Z" stroke="white" stroke-width="1.5" stroke-linecap="round" stroke-linejoin="round"/>
</svg>
