<svg width="33" height="30" viewBox="0 0 33 30" fill="none" xmlns="http://www.w3.org/2000/svg">
<g opacity="0.25" filter="url(#filter0_f_15_163)">
<rect x="6.45752" y="11.2" width="20.8" height="12.8" rx="6.4" fill="url(#paint0_linear_15_163)"/>
</g>
<rect x="5.65753" width="22.4" height="22.4" rx="11.2" fill="url(#paint1_linear_15_163)"/>
<path d="M13.7649 15.9019C13.7649 15.6973 13.7649 15.4927 13.7649 15.2881C13.7663 15.2797 13.766 15.2711 13.764 15.2629C13.762 15.2546 13.7583 15.2469 13.7531 15.2401C13.7479 15.2334 13.7414 15.2277 13.734 15.2235C13.7265 15.2194 13.7183 15.2167 13.7097 15.2159C13.1979 15.0718 12.7255 14.8151 12.3277 14.465C12.0378 14.2037 11.7965 13.8941 11.6147 13.5502C11.3584 13.0534 11.1878 12.5176 11.11 11.9651C11.0137 11.2719 10.9802 10.5716 11.0101 9.87254C11.0166 9.54662 11.0334 9.22441 11.0708 8.8985C11.1304 8.27917 11.2881 7.673 11.538 7.10227C11.8467 6.40054 12.4066 5.83686 13.1098 5.51992C13.5889 5.30272 14.0928 5.14415 14.6106 5.04772C15.1183 4.95243 15.6324 4.89394 16.1487 4.87272C16.6141 4.85642 17.0801 4.86321 17.5448 4.89309C18.21 4.92091 18.8691 5.03007 19.5072 5.21808C19.9803 5.35321 20.4304 5.55762 20.8426 5.82454C21.2441 6.09769 21.569 6.46762 21.7864 6.8995C22.042 7.40392 22.2158 7.94511 22.3013 8.50314C22.3568 8.83445 22.3933 9.16862 22.4106 9.50403C22.4349 9.91976 22.4321 10.3373 22.4162 10.7512C22.4003 11.1651 22.3648 11.5669 22.3134 11.9725C22.2485 12.5811 22.0596 13.1705 21.7583 13.7048C21.3662 14.3808 20.738 14.8912 19.9922 15.1399C19.4822 15.3169 18.9557 15.4428 18.4204 15.5158C18.0289 15.5695 17.6364 15.6084 17.242 15.6242C16.9402 15.6381 16.6384 15.6344 16.3365 15.6297C16.1655 15.6297 15.9955 15.6131 15.8254 15.5983C15.8087 15.5951 15.7914 15.597 15.7758 15.6036C15.7602 15.6102 15.7469 15.6212 15.7375 15.6353C15.3937 16.0445 15.0367 16.4427 14.6769 16.8389C14.6114 16.9112 14.5355 16.9736 14.4517 17.0241C14.3967 17.0599 14.334 17.0823 14.2686 17.0896C14.2032 17.0969 14.137 17.0889 14.0754 17.0662C14.0137 17.0435 13.9583 17.0067 13.9136 16.9589C13.8689 16.9111 13.8362 16.8535 13.8181 16.7908C13.7825 16.6794 13.7649 16.5632 13.7658 16.4464C13.7649 16.263 13.7649 16.0825 13.7649 15.9019ZM14.1807 16.6788L14.2246 16.638L15.0049 15.7797C15.3052 15.4495 15.6052 15.1189 15.9048 14.7881C15.9195 14.7679 15.9394 14.752 15.9624 14.7419C15.9854 14.7318 16.0107 14.7279 16.0356 14.7307C16.1375 14.7409 16.2394 14.7446 16.3422 14.7455C16.6973 14.7455 17.0524 14.7455 17.4075 14.7205C17.7298 14.6955 18.0513 14.6566 18.3709 14.6066C18.715 14.5473 19.0556 14.4697 19.3913 14.3742C20.1389 14.1752 20.7173 13.7492 21.0809 13.0595C21.2955 12.6354 21.4301 12.176 21.478 11.704C21.5348 11.259 21.5688 10.8116 21.5799 10.3633C21.5964 9.80008 21.5576 9.23664 21.464 8.68092C21.3991 8.27829 21.2822 7.88558 21.1164 7.51244C20.9052 7.04949 20.6061 6.66618 20.1455 6.41989C19.439 6.04212 18.6746 5.87361 17.8868 5.7875C17.6635 5.76343 17.4402 5.75047 17.2159 5.74214C16.7567 5.71868 16.2965 5.72115 15.8375 5.74954C15.5075 5.77381 15.1792 5.81772 14.8545 5.88102C14.3769 5.96727 13.9149 6.12329 13.4836 6.34396C13.2336 6.46915 13.0067 6.63538 12.8127 6.83561C12.4982 7.18388 12.2675 7.59826 12.138 8.04761C11.9843 8.57092 11.9004 9.11192 11.8885 9.6568C11.8584 10.2017 11.8653 10.748 11.909 11.2919C11.9362 11.6157 11.9909 11.9365 12.0726 12.2512C12.194 12.7414 12.4295 13.1968 12.7603 13.5807C13.1175 13.9725 13.5791 14.2562 14.0919 14.3992C14.1564 14.4187 14.1854 14.4409 14.1854 14.5131C14.1798 14.7798 14.1854 15.0464 14.1854 15.3131L14.1807 16.6788Z" fill="white"/>
<path d="M13.5268 8.40883C13.5203 8.20606 13.6315 8.05885 13.766 7.92644C13.9435 7.75799 14.1391 7.60928 14.3492 7.48294C14.445 7.4244 14.5589 7.40209 14.67 7.42012C14.781 7.43816 14.8818 7.49531 14.9538 7.58109C15.208 7.84585 15.4355 8.13455 15.6331 8.44309C15.731 8.58188 15.8049 8.73583 15.8518 8.89863C15.8705 8.96216 15.8718 9.02951 15.8553 9.09367C15.8389 9.15783 15.8054 9.21645 15.7583 9.26343C15.6505 9.36828 15.5356 9.46573 15.4145 9.55509C15.3534 9.6033 15.308 9.66825 15.2839 9.74184C15.2598 9.81543 15.2581 9.89441 15.279 9.96896C15.3538 10.319 15.5234 10.6423 15.7696 10.9041C16.0687 11.2659 16.4541 11.5482 16.8909 11.7254C16.9983 11.7801 17.1213 11.7967 17.2395 11.7726C17.3042 11.7551 17.3618 11.7178 17.4039 11.6661C17.4694 11.5837 17.5404 11.5041 17.5992 11.4161C17.6756 11.3064 17.7922 11.2306 17.9242 11.2048C18.0561 11.179 18.193 11.2054 18.3057 11.2782C18.6225 11.4603 18.9215 11.671 19.1991 11.9078C19.2645 11.9633 19.3327 12.017 19.3981 12.0735C19.4755 12.132 19.5314 12.214 19.5572 12.307C19.5831 12.4 19.5774 12.4988 19.5411 12.5883C19.4833 12.7388 19.3992 12.878 19.2925 12.9994C19.1599 13.182 18.9911 13.3357 18.7963 13.4512C18.7032 13.5054 18.5986 13.5372 18.4908 13.5441C18.3831 13.5511 18.2752 13.5329 18.1758 13.4911C17.4198 13.1895 16.7133 12.7778 16.0798 12.2698C15.4601 11.7644 14.9186 11.1717 14.4725 10.5106C14.0971 9.96335 13.7985 9.36812 13.5848 8.74123C13.562 8.66541 13.5433 8.58845 13.5287 8.51068C13.5245 8.47689 13.5239 8.44276 13.5268 8.40883Z" fill="white"/>
<path d="M16.7531 7.42364C17.3856 7.43522 17.994 7.66641 18.4722 8.0769C18.9503 8.48739 19.2679 9.05113 19.3696 9.66985C19.4105 9.8948 19.4324 10.1227 19.435 10.3513C19.435 10.405 19.421 10.4439 19.363 10.4494C19.3051 10.455 19.2901 10.4059 19.2901 10.3569C19.2988 9.89454 19.203 9.43614 19.0098 9.01524C18.8471 8.66939 18.606 8.3654 18.3054 8.12693C18.0047 7.88846 17.6526 7.72192 17.2764 7.64029C17.0775 7.59467 16.8741 7.57107 16.6699 7.56993C16.65 7.57027 16.6302 7.56777 16.611 7.56252C16.5947 7.55796 16.5808 7.54731 16.5723 7.5328C16.5637 7.51829 16.5612 7.50106 16.5652 7.48474C16.5653 7.477 16.567 7.46937 16.5702 7.46227C16.5733 7.45518 16.5778 7.44878 16.5835 7.44343C16.5891 7.43809 16.5958 7.43391 16.6031 7.43115C16.6104 7.42839 16.6182 7.42709 16.626 7.42734C16.668 7.42178 16.711 7.42364 16.7531 7.42364Z" fill="white"/>
<path d="M18.5569 9.93463C18.5538 9.6774 18.4898 9.42448 18.3702 9.19616C18.2506 8.96783 18.0787 8.77046 17.8682 8.61986C17.6225 8.44888 17.3369 8.34276 17.0384 8.31154C16.9879 8.30506 16.9375 8.30228 16.8861 8.29672C16.8347 8.29117 16.8038 8.26987 16.8085 8.21802C16.8132 8.16617 16.8459 8.14765 16.902 8.15136C17.7299 8.20136 18.4345 8.66523 18.6513 9.52909C18.6909 9.69565 18.7107 9.86626 18.7102 10.0374C18.7102 10.0531 18.7102 10.0689 18.7102 10.0837C18.7102 10.13 18.6803 10.1605 18.6345 10.1596C18.6243 10.1593 18.6143 10.1569 18.6051 10.1526C18.5959 10.1483 18.5877 10.1422 18.581 10.1347C18.5743 10.1271 18.5692 10.1183 18.566 10.1088C18.5628 10.0992 18.5616 10.0891 18.5625 10.0791C18.555 10.0355 18.5569 9.99111 18.5569 9.93463Z" fill="white"/>
<path d="M17.1064 8.90313C17.5605 8.93369 17.8773 9.15405 17.9642 9.63273C17.9747 9.69406 17.9822 9.75586 17.9866 9.81791C17.9866 9.86791 17.9754 9.9105 17.9203 9.9105C17.8651 9.9105 17.8465 9.87347 17.8446 9.81791C17.8441 9.63442 17.787 9.45546 17.6811 9.30497C17.5697 9.16867 17.4098 9.07986 17.2344 9.05683C17.1952 9.04956 17.1555 9.04461 17.1157 9.04201C17.0503 9.04201 17.0138 9.00961 17.0223 8.95961C17.0307 8.90961 17.0699 8.90035 17.1064 8.90313Z" fill="white"/>
<defs>
<filter id="filter0_f_15_163" x="0.997519" y="5.74" width="31.72" height="23.72" filterUnits="userSpaceOnUse" color-interpolation-filters="sRGB">
<feFlood flood-opacity="0" result="BackgroundImageFix"/>
<feBlend mode="normal" in="SourceGraphic" in2="BackgroundImageFix" result="shape"/>
<feGaussianBlur stdDeviation="2.73" result="effect1_foregroundBlur_15_163"/>
</filter>
<linearGradient id="paint0_linear_15_163" x1="8.28952" y1="12.1539" x2="17.4884" y2="28.3175" gradientUnits="userSpaceOnUse">
<stop stop-color="#754A91"/>
<stop offset="1" stop-color="#54008A"/>
</linearGradient>
<linearGradient id="paint1_linear_15_163" x1="7.63045" y1="1.6694" x2="26.2973" y2="21.8539" gradientUnits="userSpaceOnUse">
<stop stop-color="#754A91"/>
<stop offset="1" stop-color="#54008A"/>
</linearGradient>
</defs>
</svg>
